<svg xmlns="http://www.w3.org/2000/svg" xmlns:xlink="http://www.w3.org/1999/xlink" viewBox="0 0 39.21 39.21"><defs><style>.cls-1{fill:url(#linear-gradient);}.cls-2{fill:#fff;}</style><linearGradient id="linear-gradient" x1="19.6" y1="38.38" x2="19.6" y2="1.6" gradientUnits="userSpaceOnUse"><stop offset="0" stop-color="#0062e0"/><stop offset="1" stop-color="#19afff"/></linearGradient></defs><g id="Layer_2" data-name="Layer 2"><g id="Layer_1-2" data-name="Layer 1"><path class="cls-1" d="M39.21,19.6A19.61,19.61,0,0,1,21.86,39.08a21,21,0,0,1-2.26.13A19.61,19.61,0,1,1,39.21,19.6Z"/><path class="cls-2" d="M27.49,15.54l-.61,6.76h-5V39.08a21,21,0,0,1-2.26.13,19.74,19.74,0,0,1-4.51-.52V22.3H11.71V15.54h3.36V12.48c0-2.76,1.31-7.09,7.11-7.09l5.23,0v5.79h-3.8a1.43,1.43,0,0,0-1.49,1.62v2.71Z"/></g></g></svg>