<svg xmlns="http://www.w3.org/2000/svg" xmlns:xlink="http://www.w3.org/1999/xlink" viewBox="0 0 39.21 39.21"><defs><style>.cls-1{fill:url(#linear-gradient);}.cls-2{fill:#fff;}</style><linearGradient id="linear-gradient" x1="5.53" y1="5.53" x2="33.46" y2="33.46" gradientUnits="userSpaceOnUse"><stop offset="0" stop-color="#fd5"/><stop offset="0.5" stop-color="#ff543e"/><stop offset="1" stop-color="#c837ab"/></linearGradient></defs><g id="Layer_2" data-name="Layer 2"><g id="Layer_1-2" data-name="Layer 1"><path class="cls-1" d="M39.21,19.6A19.61,19.61,0,0,1,21.86,39.08a21,21,0,0,1-2.26.13A19.61,19.61,0,1,1,39.21,19.6Z"/><path class="cls-2" d="M19.6,9.7c-4.05,0-7.91-.36-9.38,3.42-.61,1.56-.52,3.58-.52,6.48,0,2.55-.08,4.94.52,6.49,1.47,3.78,5.35,3.42,9.38,3.42s7.89.4,9.38-3.42c.61-1.58.52-3.57.52-6.49,0-3.87.22-6.36-1.66-8.24S23.37,9.7,19.6,9.7Zm-.88,1.78c8.46,0,9.54-1,8.94,12.12-.21,4.62-3.73,4.12-8,4.12-7.89,0-8.12-.23-8.12-8.12s.63-8.11,7.23-8.12Zm6.17,1.65a1.19,1.19,0,1,0,1.19,1.19A1.19,1.19,0,0,0,24.89,13.13ZM19.6,14.52a5.09,5.09,0,1,0,5.09,5.08,5.08,5.08,0,0,0-5.09-5.08Zm0,1.78c4.37,0,4.37,6.6,0,6.6S15.24,16.3,19.6,16.3Z"/></g></g></svg>