<svg xmlns="http://www.w3.org/2000/svg" viewBox="0 0 39.21 39.21"><defs><style>.cls-1{fill:red;}.cls-2{fill:#fff;}</style></defs><g id="Layer_2" data-name="Layer 2"><g id="Layer_1-2" data-name="Layer 1"><path class="cls-1" d="M39.21,19.6A19.61,19.61,0,0,1,21.86,39.08a21,21,0,0,1-2.26.13A19.61,19.61,0,1,1,39.21,19.6Z"/><path class="cls-2" d="M30.89,13.94a2.94,2.94,0,0,0-2.08-2.07c-1.84-.51-9.21-.51-9.21-.51s-7.36,0-9.21.49a3,3,0,0,0-2.07,2.09,31.35,31.35,0,0,0-.48,5.66,31.38,31.38,0,0,0,.48,5.67,3,3,0,0,0,2.08,2.07c1.86.5,9.2.5,9.2.5s7.37,0,9.21-.48a3,3,0,0,0,2.08-2.08,31.35,31.35,0,0,0,.48-5.66A29.7,29.7,0,0,0,30.89,13.94Z"/><path class="cls-1" d="M17.26,23.13l6.12-3.53-6.12-3.52Z"/></g></g></svg>